<?xml version="1.0" standalone="no"?>
<!DOCTYPE svg PUBLIC "-//W3C//DTD SVG 20010904//EN"
 "http://www.w3.org/TR/2001/REC-SVG-20010904/DTD/svg10.dtd">
<svg version="1.0" xmlns="http://www.w3.org/2000/svg"
 width="250.000000pt" height="250.000000pt" viewBox="0 0 250.000000 250.000000"
 preserveAspectRatio="xMidYMid meet">

<g transform="translate(0.000000,250.000000) scale(0.100000,-0.100000)"
fill="#000000" stroke="none">
<path d="M585 2451 c-49 -27 -141 -85 -202 -128 -62 -43 -174 -120 -248 -172
l-135 -94 0 -228 c0 -234 6 -279 39 -279 13 0 13 -2 2 -9 -7 -5 -10 -14 -7
-20 4 -6 3 -11 -2 -11 -20 0 -32 -96 -32 -257 0 -134 4 -185 21 -253 35 -146
87 -275 157 -388 188 -304 481 -506 836 -576 126 -25 152 -27 265 -21 183 10
319 44 478 117 73 33 156 78 185 99 28 22 55 36 58 32 4 -5 12 -28 19 -52 7
-24 35 -81 63 -127 l50 -84 80 0 81 0 -5 45 c-7 57 5 57 29 0 l18 -45 83 0 82
0 -2 228 -2 227 -6 -210 c-3 -116 -8 -205 -11 -200 -4 6 -25 68 -48 139 -48
150 -78 288 -87 401 -6 79 -6 81 37 169 35 72 48 90 73 99 17 6 34 10 39 9 4
-1 7 200 7 446 l0 448 -66 79 c-37 44 -90 112 -119 150 -91 123 -245 259 -405
359 -78 48 -172 102 -209 120 l-66 31 -480 2 -480 3 -90 -49z m471 -392 c16
-1 17 -2 2 -6 -20 -5 -23 -19 -7 -29 6 -3 15 0 20 7 6 11 9 9 9 -8 0 -12 7
-29 16 -37 8 -9 11 -16 5 -16 -6 0 -15 9 -21 20 -6 11 -18 20 -26 20 -8 0 -20
14 -25 30 -6 17 -14 30 -18 30 -3 0 -12 10 -20 23 -11 19 -9 18 16 -5 16 -16
38 -29 49 -29z m-43 -39 c6 -14 11 -29 12 -35 2 -21 26 -55 36 -50 5 4 9 1 9
-4 0 -31 -48 5 -54 41 -5 31 -24 69 -41 83 -7 6 -15 19 -19 30 -9 28 42 -31
57 -65z m57 64 c0 -2 -7 -4 -15 -4 -8 0 -15 4 -15 10 0 5 7 7 15 4 8 -4 15 -8
15 -10z m-206 -16 c6 -35 61 -107 73 -94 3 3 -2 12 -11 21 -23 24 -48 75 -37
75 6 0 17 -13 26 -30 9 -16 20 -30 25 -30 5 0 12 -11 16 -25 3 -14 10 -25 16
-25 13 0 -1 41 -22 65 -26 30 -43 65 -31 65 6 0 13 -11 17 -25 3 -14 13 -25
20 -25 15 0 37 -44 36 -72 0 -9 11 -29 26 -44 18 -19 21 -25 10 -21 -10 3 -18
2 -18 -3 0 -17 -39 -11 -49 7 -13 25 -25 9 -12 -16 7 -12 7 -22 2 -25 -5 -4
-12 6 -16 22 -3 16 -18 35 -33 44 -15 9 -36 25 -48 36 -25 24 -64 38 -64 23 0
-6 6 -11 13 -11 7 0 26 -11 43 -24 16 -13 40 -33 52 -43 17 -13 23 -26 20 -43
-5 -24 -5 -24 -17 8 -7 17 -17 32 -23 32 -6 0 -7 -8 -3 -17 17 -41 18 -63 1
-63 -10 0 -14 5 -11 10 3 6 1 10 -4 10 -6 0 -11 -7 -11 -15 0 -24 -47 -42 -71
-27 -11 7 -19 8 -19 2 0 -5 5 -10 12 -10 9 0 9 -3 0 -12 -8 -8 -15 -8 -26 1
-12 10 -14 9 -9 -9 4 -16 2 -19 -11 -14 -9 3 -16 1 -16 -5 0 -6 -7 -11 -15
-11 -8 0 -15 -5 -15 -11 0 -6 -7 -9 -15 -5 -8 3 -15 1 -15 -4 0 -5 -21 -19
-47 -32 -27 -13 -54 -29 -61 -35 -7 -7 -23 -13 -34 -13 -12 0 -18 -3 -15 -6 6
-6 -78 -72 -154 -122 -28 -18 -126 -102 -159 -135 -21 -21 -60 -15 -60 9 0 11
-6 13 -22 8 -19 -6 -21 -5 -11 8 7 8 10 18 6 21 -10 11 12 8 25 -3 9 -7 9 -7
2 2 -6 7 -10 20 -10 29 0 10 -10 20 -22 22 -13 3 -2 3 25 1 40 -3 45 -1 35 10
-8 8 -15 10 -19 4 -3 -5 -9 -3 -12 6 -4 11 -1 16 11 17 10 0 12 3 5 6 -7 2
-13 9 -13 14 0 6 3 8 8 6 4 -3 16 -1 27 4 19 7 19 8 -2 8 -15 1 -23 7 -23 19
0 10 3 13 8 6 4 -6 17 -13 30 -17 18 -4 22 -2 18 9 -4 9 2 14 17 15 17 1 18 2
5 6 -10 2 -18 9 -18 14 0 13 24 11 39 -3 10 -11 11 -10 6 5 -4 9 -12 17 -19
17 -6 0 -3 5 7 11 10 6 30 8 45 5 l27 -6 -25 22 c-18 15 -20 19 -7 15 35 -13
72 -20 65 -12 -3 4 -24 13 -45 20 l-38 14 35 1 c19 1 29 4 23 7 -21 8 -14 26
8 20 15 -4 18 -2 10 7 -15 18 -1 28 17 13 13 -10 14 -9 8 2 -5 8 -3 17 5 22
10 6 7 9 -11 10 l-25 1 25 7 c15 4 28 3 32 -3 5 -7 8 -7 8 2 0 7 5 10 10 7 6
-3 10 1 10 9 0 8 -9 18 -20 21 -17 6 -18 8 -6 21 19 18 45 18 52 -1 9 -22 23
-18 17 5 -3 11 -14 20 -25 20 -10 0 -17 4 -13 10 7 12 36 2 53 -18 11 -14 12
-14 12 0 0 9 -8 25 -17 34 -17 17 -17 18 0 11 51 -20 52 -20 30 2 -24 23 -32
40 -10 24 6 -6 30 -13 52 -16 27 -4 35 -3 25 3 -8 5 -24 10 -35 10 -15 0 -16
3 -7 9 7 4 24 6 38 3 30 -6 31 6 2 18 -23 9 -23 9 -1 9 12 1 23 -3 25 -8 5
-13 48 -24 48 -12 0 6 -7 11 -15 11 -9 0 -18 7 -21 15 -4 8 -11 12 -18 8 -6
-3 -5 0 3 8 10 11 15 11 18 2 3 -7 12 -13 22 -13 9 0 22 -5 29 -12 9 -9 12 -9
12 0 0 7 -4 12 -10 12 -5 0 -10 6 -10 14 0 16 48 9 89 -13 35 -19 37 -5 2 15
-20 12 -31 26 -30 39 1 16 2 17 6 3 2 -9 14 -20 26 -24 12 -3 30 -13 40 -22
16 -14 17 -13 14 17 -2 18 -10 37 -18 43 -11 8 -10 9 4 4 9 -3 24 -9 32 -12
10 -4 15 0 15 12 0 9 3 14 8 10 4 -4 7 -13 7 -18 0 -6 6 -13 13 -16 7 -2 13 2
11 9 -5 41 8 66 15 27z m277 -5 c13 -16 12 -17 -3 -4 -10 7 -18 15 -18 17 0 8
8 3 21 -13z m-386 -33 c3 -5 -1 -10 -9 -10 -8 0 -18 5 -21 10 -3 6 1 10 9 10
8 0 18 -4 21 -10z m386 -7 c13 -17 13 -17 -6 -3 -11 8 -22 16 -24 17 -2 2 0 3
6 3 6 0 17 -8 24 -17z m6 -40 c4 -10 11 -21 17 -25 7 -5 7 -8 -2 -8 -7 0 -16
8 -19 18 -4 9 -11 20 -17 24 -7 5 -7 8 2 8 7 0 16 -8 19 -17z m-72 -23 c8 0
17 -4 20 -10 4 -6 -2 -7 -17 -1 -13 4 -23 14 -24 22 -1 9 0 10 3 2 3 -7 11
-13 18 -13z m135 -1 c0 -4 -7 -6 -15 -3 -8 4 -15 10 -15 15 0 4 7 6 15 3 8 -4
15 -10 15 -15z m-12 -114 c-3 -3 -9 2 -12 12 -6 14 -5 15 5 6 7 -7 10 -15 7
-18z m-67 -4 c-8 -6 -11 -16 -6 -31 5 -15 4 -20 -4 -16 -21 14 -11 56 13 56 6
0 5 -4 -3 -9z m33 -6 c3 -8 1 -15 -4 -15 -6 0 -10 7 -10 15 0 8 2 15 4 15 2 0
6 -7 10 -15z m-74 -20 c7 -8 8 -15 2 -15 -5 0 -15 7 -22 15 -7 8 -8 15 -2 15
5 0 15 -7 22 -15z m106 -1 c-3 -9 1 -31 10 -50 9 -19 14 -38 10 -41 -3 -3 -6
1 -6 10 0 10 -6 17 -12 17 -8 0 -14 16 -15 40 -2 23 2 40 8 40 6 0 8 -7 5 -16z
m-150 -12 c6 -4 10 -23 9 -42 -2 -37 23 -118 44 -144 11 -14 11 -16 -3 -16 -9
0 -17 -8 -17 -17 -1 -17 -2 -17 -6 0 -2 9 -11 17 -18 17 -8 0 -17 16 -21 37
-8 40 -38 81 -48 64 -4 -5 1 -14 10 -19 10 -6 18 -23 18 -45 1 -24 10 -42 25
-54 21 -17 22 -21 8 -34 -8 -9 -17 -24 -20 -35 -3 -15 -6 -11 -12 14 -10 44
-28 41 -19 -4 4 -25 3 -35 -4 -30 -5 3 -13 50 -17 104 -3 53 -13 117 -21 141
-15 49 -11 70 6 27 5 -15 10 -32 10 -37 0 -5 5 -9 10 -9 12 0 12 -2 1 38 -8
25 -7 32 2 29 7 -2 11 -11 9 -21 -2 -9 1 -16 5 -16 4 0 17 -3 28 -6 17 -4 21
-1 20 22 -1 15 -7 30 -14 32 -9 3 -11 -2 -6 -17 3 -11 2 -21 -3 -21 -5 0 -12
11 -14 25 -5 26 13 34 38 17z m112 -28 c-3 -14 -5 -12 -10 9 -3 19 -2 25 4 19
6 -6 8 -18 6 -28z m81 -4 c11 -24 11 -24 -3 -6 -9 11 -16 24 -16 30 0 12 5 7
19 -24z m-144 10 c3 -5 1 -10 -4 -10 -6 0 -11 5 -11 10 0 6 2 10 4 10 3 0 8
-4 11 -10z m30 -10 c3 -5 1 -10 -4 -10 -6 0 -11 5 -11 10 0 6 2 10 4 10 3 0 8
-4 11 -10z m-186 -42 c13 -43 22 -129 20 -203 -1 -39 0 -107 1 -152 0 -33 20
-28 21 5 0 26 1 26 9 4 10 -23 4 -52 -10 -52 -9 0 -20 -31 -26 -73 -3 -20 0
-27 8 -24 7 2 13 10 14 18 2 29 16 69 25 69 12 0 11 -17 -1 -25 -6 -4 -8 -10
-5 -15 3 -5 3 -21 -1 -35 -5 -18 -13 -25 -31 -25 -20 0 -24 -4 -20 -20 3 -13
0 -20 -9 -20 -8 0 -14 -7 -14 -15 0 -8 -5 -15 -10 -15 -7 0 -7 6 0 19 13 25
13 41 0 41 -5 0 -10 -5 -10 -11 0 -15 -16 -29 -87 -77 -64 -43 -79 -59 -69
-69 3 -4 15 3 26 15 12 12 23 22 25 22 18 0 -26 -46 -52 -54 -18 -6 -21 -4
-16 16 4 17 3 20 -5 13 -6 -6 -13 -19 -14 -30 -3 -20 -46 -95 -54 -95 -11 0
-2 19 21 46 15 17 21 32 15 38 -5 5 -5 17 2 30 17 30 20 56 6 56 -9 0 -9 3 0
12 15 15 16 28 2 28 -5 0 -10 -7 -10 -15 0 -8 -7 -15 -16 -15 -8 0 -12 -5 -9
-10 4 -6 11 -8 16 -5 5 4 9 -5 9 -19 0 -14 -4 -26 -10 -26 -5 0 -10 -7 -10
-15 0 -8 -6 -12 -13 -10 -6 3 -17 -5 -22 -17 -6 -13 -18 -24 -29 -26 -12 -3
-16 0 -11 8 4 7 1 16 -6 21 -19 12 -39 11 -39 -1 0 -5 7 -7 15 -4 11 5 15 -1
15 -20 0 -21 -5 -26 -25 -26 -43 0 -27 -20 18 -21 32 -2 35 -3 13 -6 -41 -6
-76 4 -70 21 4 10 -8 15 -40 20 -25 4 -46 11 -46 17 0 5 -5 9 -11 9 -6 0 -8
-7 -5 -16 11 -28 -13 -45 -52 -38 -26 5 -33 4 -27 -6 6 -9 3 -9 -16 0 -19 11
-21 14 -7 24 18 13 20 46 2 39 -7 -3 -23 2 -36 11 -23 17 -14 22 11 7 9 -6 23
-5 38 2 22 10 22 11 7 29 -10 10 -25 18 -35 18 -9 0 -19 6 -22 13 -3 9 -8 9
-18 -2 -8 -8 -9 -11 -2 -7 6 3 14 2 18 -4 3 -5 15 -10 25 -10 10 0 22 -5 26
-11 9 -15 -17 -30 -31 -19 -6 5 -28 7 -48 3 -30 -4 -37 -3 -37 11 0 9 -8 16
-17 17 -13 0 -14 2 -4 6 8 3 19 -1 25 -9 7 -10 19 -12 36 -7 23 7 24 7 3 8
-15 1 -21 6 -17 15 3 8 -4 20 -15 28 -12 8 -18 18 -14 22 4 3 -7 5 -23 2 -16
-2 -21 -1 -11 1 25 6 21 18 -15 43 -29 19 -30 21 -8 15 24 -6 24 -5 -2 10 -40
22 -35 28 8 10 32 -13 35 -13 24 0 -7 8 -18 15 -26 15 -25 0 -25 20 0 30 14 5
26 12 26 16 0 3 -8 3 -17 -1 -15 -5 -15 -3 2 13 11 10 36 36 55 58 20 21 54
52 75 69 53 39 63 47 83 66 32 30 120 86 189 120 37 19 70 37 73 40 9 11 55
33 63 31 4 -1 17 7 29 18 12 11 32 20 45 20 13 0 23 6 24 13 0 10 2 10 6 0 2
-7 9 -13 15 -13 6 0 8 7 4 15 -5 14 9 20 42 16 7 -1 15 5 18 14 12 31 40 16
53 -27z m151 6 c0 -8 7 -26 16 -39 9 -14 12 -25 7 -25 -10 0 -28 31 -38 69 -5
16 -4 21 4 17 6 -4 11 -14 11 -22z m64 -43 c-6 -6 -34 21 -46 43 -7 15 -1 12
20 -9 16 -16 28 -32 26 -34z m41 20 c-6 -5 -25 10 -25 20 0 5 6 4 14 -3 8 -7
12 -15 11 -17z m40 -21 c3 -5 1 -10 -4 -10 -6 0 -11 5 -11 10 0 6 2 10 4 10 3
0 8 -4 11 -10z m-30 -10 c3 -6 -1 -7 -9 -4 -18 7 -21 14 -7 14 6 0 13 -4 16
-10z m-61 -15 c3 -8 1 -15 -4 -15 -6 0 -10 7 -10 15 0 8 2 15 4 15 2 0 6 -7
10 -15z m-4 -36 c0 -4 -9 -5 -20 -2 -11 3 -20 12 -20 19 0 12 4 12 20 2 11 -7
20 -16 20 -19z m135 -28 c3 -5 1 -12 -5 -16 -5 -3 -10 1 -10 9 0 18 6 21 15 7z
m-41 -40 c1 -17 -1 -31 -6 -31 -4 0 -8 17 -8 37 0 43 11 38 14 -6z m-1164 15
c0 -11 -19 -15 -25 -6 -3 5 1 10 9 10 9 0 16 -2 16 -4z m1125 -5 c3 -5 1 -12
-5 -16 -5 -3 -10 1 -10 9 0 18 6 21 15 7z m-65 -46 c7 -9 8 -15 2 -15 -5 0
-12 7 -16 15 -3 8 -4 15 -2 15 2 0 9 -7 16 -15z m34 -1 c3 -8 2 -12 -4 -9 -6
3 -10 10 -10 16 0 14 7 11 14 -7z m41 6 c3 -5 2 -10 -4 -10 -5 0 -13 5 -16 10
-3 6 -2 10 4 10 5 0 13 -4 16 -10z m-101 -25 c3 -8 1 -15 -4 -15 -6 0 -10 7
-10 15 0 8 2 15 4 15 2 0 6 -7 10 -15z m-127 -87 c-3 -8 -6 -5 -6 6 -1 11 2
17 5 13 3 -3 4 -12 1 -19z m-847 -49 c16 -14 19 -19 8 -15 -12 3 -18 0 -18 -9
0 -8 -6 -15 -14 -15 -16 0 -16 31 -1 43 6 5 4 7 -5 4 -8 -2 -14 -13 -12 -23 3
-14 1 -16 -7 -8 -14 12 -4 44 13 44 6 0 22 -10 36 -21z m-30 -52 c13 -5 13 -6
-1 -6 -8 -1 -24 6 -35 15 -19 15 -19 15 1 6 11 -5 27 -12 35 -15z m-23 -43
c-3 -3 -12 -4 -19 -1 -8 3 -5 6 6 6 11 1 17 -2 13 -5z m934 -65 c-5 -13 -10
-19 -10 -12 -1 15 10 45 15 40 3 -2 0 -15 -5 -28z m34 -29 c-4 -12 -9 -19 -12
-17 -3 3 -2 15 2 27 4 12 9 19 12 17 3 -3 2 -15 -2 -27z m-42 -14 c4 -10 1
-13 -8 -9 -8 3 -12 9 -9 14 7 12 11 11 17 -5z m-823 -12 c0 -2 -7 -4 -15 -4
-8 0 -15 4 -15 10 0 5 7 7 15 4 8 -4 15 -8 15 -10z m710 -14 c0 -5 -5 -10 -11
-10 -5 0 -7 5 -4 10 3 6 8 10 11 10 2 0 4 -4 4 -10z m85 -10 c3 -5 1 -10 -4
-10 -6 0 -11 5 -11 10 0 6 2 10 4 10 3 0 8 -4 11 -10z m-112 -41 c-8 -29 -22
-22 -19 9 5 38 5 39 15 23 5 -7 6 -22 4 -32z m42 21 c3 -5 -1 -10 -10 -10 -9
0 -13 5 -10 10 3 6 8 10 10 10 2 0 7 -4 10 -10z m-677 -20 c3 -9 0 -10 -9 -4
-8 5 -23 8 -34 6 l-20 -2 20 9 c25 12 37 9 43 -9z m595 5 c-3 -9 -8 -14 -10
-11 -3 3 -2 9 2 15 9 16 15 13 8 -4z m72 -25 c3 -5 1 -10 -4 -10 -6 0 -11 5
-11 10 0 6 2 10 4 10 3 0 8 -4 11 -10z m-75 -10 c0 -5 -5 -10 -11 -10 -5 0 -7
5 -4 10 3 6 8 10 11 10 2 0 4 -4 4 -10z m-624 -15 c-3 -8 -1 -15 4 -15 6 0 10
-7 10 -15 0 -8 -5 -15 -11 -15 -5 0 -7 5 -4 10 3 6 -1 13 -9 16 -12 5 -13 9
-3 20 16 18 20 17 13 -1z m658 0 c3 -9 0 -15 -9 -15 -9 0 -12 6 -9 15 4 8 7
15 9 15 2 0 5 -7 9 -15z m-54 -15 c0 -5 -5 -10 -11 -10 -5 0 -7 5 -4 10 3 6 8
10 11 10 2 0 4 -4 4 -10z m-534 -15 c17 -13 16 -14 -13 -4 -34 11 -42 19 -20
19 7 0 22 -7 33 -15z m404 -5 c0 -5 -4 -10 -10 -10 -5 0 -10 5 -10 10 0 6 5
10 10 10 6 0 10 -4 10 -10z m70 0 c0 -5 -4 -10 -10 -10 -5 0 -10 5 -10 10 0 6
5 10 10 10 6 0 10 -4 10 -10z m30 -6 c0 -8 -5 -12 -10 -9 -6 4 -8 11 -5 16 9
14 15 11 15 -7z m30 -10 c0 -8 -5 -12 -10 -9 -6 4 -8 11 -5 16 9 14 15 11 15
-7z m-157 -24 c-3 -11 -9 -17 -15 -14 -5 3 -4 12 3 20 16 19 18 18 12 -6z m87
10 c0 -5 -4 -10 -10 -10 -5 0 -10 5 -10 10 0 6 5 10 10 10 6 0 10 -4 10 -10z
m100 0 c0 -5 -5 -10 -11 -10 -5 0 -7 5 -4 10 3 6 8 10 11 10 2 0 4 -4 4 -10z
m-220 -10 c0 -5 -2 -10 -4 -10 -3 0 -8 5 -11 10 -3 6 -1 10 4 10 6 0 11 -4 11
-10z m153 -4 c4 -10 1 -13 -9 -9 -7 3 -14 9 -14 14 0 14 17 10 23 -5z m-473
-11 c7 -9 8 -15 2 -15 -5 0 -12 7 -16 15 -3 8 -4 15 -2 15 2 0 9 -7 16 -15z
m198 8 c-10 -2 -28 -2 -40 0 -13 2 -5 4 17 4 22 1 32 -1 23 -4z m-223 -13 c3
-5 1 -10 -4 -10 -6 0 -11 5 -11 10 0 6 2 10 4 10 3 0 8 -4 11 -10z m136 -9
c23 15 35 10 13 -5 -21 -15 -64 -11 -64 6 0 5 7 5 18 -1 11 -6 24 -6 33 0z
m49 -6 c-7 -8 -17 -15 -22 -15 -11 0 14 29 26 30 5 0 3 -7 -4 -15z m90 -9 c25
-8 36 -15 25 -15 -11 0 -33 6 -50 14 -39 18 -31 18 25 1z m-200 -9 c0 -4 0
-12 0 -18 0 -7 -8 -6 -23 4 -13 8 -32 17 -42 20 -11 2 -1 4 23 3 23 -1 42 -5
42 -9z m350 9 c0 -2 -9 -6 -20 -9 -11 -3 -18 -1 -14 4 5 9 34 13 34 5z m-300
-16 c8 -5 11 -10 5 -10 -5 0 -17 5 -25 10 -8 5 -10 10 -5 10 6 0 17 -5 25 -10z
m115 0 c13 -5 14 -9 5 -9 -8 0 -24 4 -35 9 -13 5 -14 9 -5 9 8 0 24 -4 35 -9z
m-65 -14 c0 -2 -7 -7 -16 -10 -8 -3 -12 -2 -9 4 6 10 25 14 25 6z m110 0 c0
-3 -4 -8 -10 -11 -5 -3 -10 -1 -10 4 0 6 5 11 10 11 6 0 10 -2 10 -4z m-35
-24 c-3 -3 -11 0 -18 7 -9 10 -8 11 6 5 10 -3 15 -9 12 -12z m52 -4 c-3 -8 -6
-5 -6 6 -1 11 2 17 5 13 3 -3 4 -12 1 -19z"/>
<path d="M786 2020 c6 -6 22 -12 35 -13 13 -1 38 -16 56 -34 50 -52 63 -40 14
13 -20 22 -41 33 -72 38 -32 5 -41 4 -33 -4z"/>
<path d="M670 1982 c0 -5 7 -12 15 -16 8 -3 15 -12 15 -21 0 -8 5 -15 10 -15
20 0 9 24 -22 49 -10 7 -18 9 -18 3z"/>
<path d="M765 1960 c3 -5 11 -10 16 -10 6 0 7 5 4 10 -3 6 -11 10 -16 10 -6 0
-7 -4 -4 -10z"/>
<path d="M663 1940 c1 -11 5 -20 9 -20 3 0 6 9 5 20 -1 11 -5 20 -9 20 -3 0
-6 -9 -5 -20z"/>
<path d="M800 1955 c0 -10 53 -55 58 -50 5 4 -10 20 -41 44 -9 7 -17 10 -17 6z"/>
<path d="M930 1945 c0 -8 5 -15 10 -15 6 0 10 7 10 15 0 8 -4 15 -10 15 -5 0
-10 -7 -10 -15z"/>
<path d="M730 1942 c0 -13 39 -56 45 -50 3 3 -1 11 -10 18 -8 7 -15 19 -15 26
0 8 -4 14 -10 14 -5 0 -10 -4 -10 -8z"/>
<path d="M968 1944 c-8 -7 13 -44 24 -44 12 0 10 14 -5 34 -7 9 -16 14 -19 10z"/>
<path d="M570 1930 c0 -5 5 -10 10 -10 6 0 10 5 10 10 0 6 -4 10 -10 10 -5 0
-10 -4 -10 -10z"/>
<path d="M770 1930 c0 -5 5 -10 11 -10 5 0 7 5 4 10 -3 6 -8 10 -11 10 -2 0
-4 -4 -4 -10z"/>
<path d="M640 1923 c0 -6 9 -20 20 -33 11 -13 20 -20 20 -16 0 4 -9 19 -20 33
-11 14 -20 21 -20 16z"/>
<path d="M690 1911 c0 -5 9 -13 20 -16 11 -3 20 -11 20 -16 0 -5 5 -9 11 -9 8
0 7 5 -1 16 -18 21 -50 37 -50 25z"/>
<path d="M795 1900 c4 -6 11 -8 16 -5 5 4 9 1 9 -4 0 -6 5 -11 11 -11 8 0 8 5
-1 15 -14 17 -45 21 -35 5z"/>
<path d="M620 1880 c13 -11 25 -20 28 -20 3 0 -3 9 -13 20 -10 11 -23 20 -28
20 -6 0 0 -9 13 -20z"/>
<path d="M490 1869 c0 -5 5 -7 10 -4 6 3 10 8 10 11 0 2 -4 4 -10 4 -5 0 -10
-5 -10 -11z"/>
<path d="M520 1870 c0 -6 7 -10 15 -10 8 0 15 2 15 4 0 2 -7 6 -15 10 -8 3
-15 1 -15 -4z"/>
<path d="M760 1870 c0 -5 5 -10 11 -10 5 0 7 5 4 10 -3 6 -8 10 -11 10 -2 0
-4 -4 -4 -10z"/>
<path d="M790 1872 c0 -4 9 -13 20 -20 23 -14 26 -7 6 14 -16 15 -26 18 -26 6z"/>
<path d="M850 1870 c0 -5 5 -10 10 -10 6 0 10 5 10 10 0 6 -4 10 -10 10 -5 0
-10 -4 -10 -10z"/>
<path d="M602 1856 c7 -8 15 -12 17 -11 5 6 -10 25 -20 25 -5 0 -4 -6 3 -14z"/>
<path d="M665 1850 c3 -5 8 -10 11 -10 2 0 4 5 4 10 0 6 -5 10 -11 10 -5 0 -7
-4 -4 -10z"/>
<path d="M385 1840 c-3 -5 0 -10 9 -10 8 0 16 -6 19 -12 3 -7 4 -3 4 10 -1 22
-21 30 -32 12z"/>
<path d="M490 1846 c0 -2 7 -6 15 -10 8 -3 15 -1 15 4 0 6 -7 10 -15 10 -8 0
-15 -2 -15 -4z"/>
<path d="M581 1831 c13 -11 26 -17 29 -14 6 6 -30 33 -43 33 -5 0 1 -9 14 -19z"/>
<path d="M730 1840 c8 -5 20 -10 25 -10 6 0 3 5 -5 10 -8 5 -19 10 -25 10 -5
0 -3 -5 5 -10z"/>
<path d="M780 1842 c0 -4 9 -13 20 -20 11 -7 20 -9 20 -4 0 4 -9 13 -20 20
-11 7 -20 9 -20 4z"/>
<path d="M467 1833 c-3 -4 6 -16 19 -26 29 -22 31 -18 5 12 -11 12 -21 18 -24
14z"/>
<path d="M675 1800 c3 -5 8 -10 11 -10 2 0 4 5 4 10 0 6 -5 10 -11 10 -5 0 -7
-4 -4 -10z"/>
<path d="M127 1459 c7 -7 15 -10 18 -7 3 3 -2 9 -12 12 -14 6 -15 5 -6 -5z"/>
<path d="M168 1418 c5 -5 16 -8 23 -6 8 3 3 7 -10 11 -17 4 -21 3 -13 -5z"/>
<path d="M1005 1730 c-4 -6 1 -18 11 -25 36 -27 48 -11 15 19 -13 12 -21 14
-26 6z"/>
<path d="M1043 1656 c4 -10 7 -24 7 -32 0 -8 5 -14 11 -14 15 0 6 53 -10 58
-10 3 -12 0 -8 -12z"/>
<path d="M985 1633 c2 -16 4 -29 6 -30 1 -2 2 -7 3 -11 2 -14 37 -45 43 -38 4
3 -3 15 -15 26 -13 13 -22 33 -22 50 0 17 -4 30 -9 30 -5 0 -8 -12 -6 -27z"/>
<path d="M897 1754 c-2 -3 4 -24 16 -47 11 -23 22 -37 24 -32 4 13 -32 86 -40
79z"/>
<path d="M840 1720 c0 -5 5 -10 10 -10 6 0 10 5 10 10 0 6 -4 10 -10 10 -5 0
-10 -4 -10 -10z"/>
<path d="M870 1710 c0 -5 5 -10 11 -10 5 0 8 -4 4 -9 -3 -5 -1 -12 5 -16 11
-7 13 5 4 29 -7 18 -24 22 -24 6z"/>
<path d="M820 1690 c0 -5 5 -10 10 -10 6 0 10 5 10 10 0 6 -4 10 -10 10 -5 0
-10 -4 -10 -10z"/>
<path d="M850 1680 c0 -5 5 -10 10 -10 6 0 10 5 10 10 0 6 -4 10 -10 10 -5 0
-10 -4 -10 -10z"/>
<path d="M760 1660 c0 -5 5 -10 11 -10 5 0 7 5 4 10 -3 6 -8 10 -11 10 -2 0
-4 -4 -4 -10z"/>
<path d="M831 1642 c0 -18 3 -31 8 -28 5 4 11 0 14 -6 2 -7 8 -10 12 -5 5 4 1
13 -7 20 -9 6 -18 21 -21 32 -3 12 -5 8 -6 -13z"/>
<path d="M790 1650 c0 -5 5 -10 10 -10 6 0 10 5 10 10 0 6 -4 10 -10 10 -5 0
-10 -4 -10 -10z"/>
<path d="M872 1640 c12 -19 28 -27 28 -14 0 7 -27 34 -34 34 -4 0 -1 -9 6 -20z"/>
<path d="M910 1650 c0 -5 5 -10 10 -10 6 0 10 5 10 10 0 6 -4 10 -10 10 -5 0
-10 -4 -10 -10z"/>
<path d="M735 1630 c3 -5 8 -10 11 -10 2 0 4 5 4 10 0 6 -5 10 -11 10 -5 0 -7
-4 -4 -10z"/>
<path d="M765 1620 c3 -5 8 -10 11 -10 2 0 4 5 4 10 0 6 -5 10 -11 10 -5 0 -7
-4 -4 -10z"/>
<path d="M795 1620 c-3 -5 -1 -10 4 -10 6 0 11 5 11 10 0 6 -2 10 -4 10 -3 0
-8 -4 -11 -10z"/>
<path d="M921 1630 c-10 -19 -5 -52 11 -72 14 -19 18 -20 18 -5 0 9 -4 17 -9
17 -6 0 -12 15 -14 33 -2 17 -5 30 -6 27z"/>
<path d="M740 1602 c0 -5 7 -13 16 -16 22 -8 24 -8 24 6 0 6 -3 8 -7 5 -3 -4
-12 -2 -20 4 -8 7 -13 8 -13 1z"/>
<path d="M790 1590 c0 -5 5 -10 10 -10 6 0 10 5 10 10 0 6 -4 10 -10 10 -5 0
-10 -4 -10 -10z"/>
<path d="M835 1580 c10 -11 20 -18 23 -16 5 6 -23 36 -34 36 -4 0 1 -9 11 -20z"/>
<path d="M880 1590 c0 -5 5 -10 10 -10 6 0 10 5 10 10 0 6 -4 10 -10 10 -5 0
-10 -4 -10 -10z"/>
<path d="M870 1554 c0 -8 5 -12 10 -9 6 3 10 10 10 16 0 5 -4 9 -10 9 -5 0
-10 -7 -10 -16z"/>
<path d="M900 1542 c0 -4 9 -13 20 -20 23 -14 26 -7 6 14 -16 15 -26 18 -26 6z"/>
<path d="M810 1531 c0 -5 5 -13 10 -16 6 -3 10 -2 10 4 0 5 -4 13 -10 16 -5 3
-10 2 -10 -4z"/>
<path d="M860 1520 c0 -5 5 -10 10 -10 6 0 10 5 10 10 0 6 -4 10 -10 10 -5 0
-10 -4 -10 -10z"/>
<path d="M896 1511 c-4 -7 -5 -15 -2 -18 9 -9 19 4 14 18 -4 11 -6 11 -12 0z"/>
<path d="M790 1490 c0 -5 5 -10 10 -10 6 0 10 5 10 10 0 6 -4 10 -10 10 -5 0
-10 -4 -10 -10z"/>
<path d="M825 1490 c3 -5 8 -10 11 -10 2 0 4 5 4 10 0 6 -5 10 -11 10 -5 0 -7
-4 -4 -10z"/>
<path d="M855 1491 c-3 -5 -1 -12 5 -16 5 -3 10 1 10 9 0 18 -6 21 -15 7z"/>
<path d="M925 1491 c-3 -5 -1 -12 5 -16 5 -3 10 1 10 9 0 18 -6 21 -15 7z"/>
<path d="M700 1470 c0 -5 5 -10 10 -10 6 0 10 5 10 10 0 6 -4 10 -10 10 -5 0
-10 -4 -10 -10z"/>
<path d="M890 1470 c0 -5 5 -10 10 -10 6 0 10 5 10 10 0 6 -4 10 -10 10 -5 0
-10 -4 -10 -10z"/>
<path d="M790 1450 c0 -5 5 -10 10 -10 6 0 10 5 10 10 0 6 -4 10 -10 10 -5 0
-10 -4 -10 -10z"/>
<path d="M860 1451 c0 -5 6 -12 13 -14 9 -4 9 -7 -1 -15 -17 -11 -29 -92 -14
-92 5 0 10 16 10 36 0 20 8 44 18 55 16 17 16 22 4 29 -19 12 -30 12 -30 1z"/>
<path d="M920 1446 c0 -9 5 -16 10 -16 6 0 10 4 10 9 0 6 -4 13 -10 16 -5 3
-10 -1 -10 -9z"/>
<path d="M818 1405 c-3 -14 -1 -28 3 -31 5 -3 9 9 9 25 0 38 -6 40 -12 6z"/>
<path d="M900 1410 c0 -5 5 -10 10 -10 6 0 10 5 10 10 0 6 -4 10 -10 10 -5 0
-10 -4 -10 -10z"/>
<path d="M920 1391 c0 -6 5 -13 10 -16 6 -3 10 1 10 9 0 9 -4 16 -10 16 -5 0
-10 -4 -10 -9z"/>
<path d="M890 1361 c0 -17 -5 -33 -10 -36 -6 -4 -8 -11 -5 -16 4 -5 -1 -9 -10
-9 -11 0 -15 -5 -11 -16 9 -23 -21 -85 -44 -91 -11 -3 -20 -10 -20 -15 0 -5 9
-6 20 -3 14 4 20 2 20 -9 0 -10 -6 -13 -15 -10 -9 4 -15 0 -15 -10 0 -9 4 -16
8 -16 14 0 46 39 39 47 -4 3 -2 12 4 19 6 8 13 31 16 51 3 21 12 46 21 56 17
19 25 87 10 87 -4 0 -8 -13 -8 -29z"/>
<path d="M780 1370 c0 -5 5 -10 10 -10 6 0 10 5 10 10 0 6 -4 10 -10 10 -5 0
-10 -4 -10 -10z"/>
<path d="M715 1360 c-3 -5 -1 -10 4 -10 6 0 11 5 11 10 0 6 -2 10 -4 10 -3 0
-8 -4 -11 -10z"/>
<path d="M824 1338 c3 -13 6 -26 6 -30 0 -15 20 -8 20 7 0 8 -4 15 -10 15 -5
0 -7 7 -4 15 4 8 1 15 -6 15 -8 0 -10 -8 -6 -22z"/>
<path d="M930 1331 c0 -17 4 -33 10 -36 5 -3 9 9 8 30 -2 42 -18 48 -18 6z"/>
<path d="M680 1339 c0 -5 5 -7 10 -4 6 3 10 8 10 11 0 2 -4 4 -10 4 -5 0 -10
-5 -10 -11z"/>
<path d="M780 1334 c0 -8 5 -12 10 -9 6 3 10 10 10 16 0 5 -4 9 -10 9 -5 0
-10 -7 -10 -16z"/>
<path d="M705 1320 c3 -5 8 -10 11 -10 2 0 4 5 4 10 0 6 -5 10 -11 10 -5 0 -7
-4 -4 -10z"/>
<path d="M800 1305 c0 -8 2 -15 4 -15 2 0 6 7 10 15 3 8 1 15 -4 15 -6 0 -10
-7 -10 -15z"/>
<path d="M737 1303 c-4 -3 -7 -11 -7 -17 0 -6 5 -5 12 2 6 6 9 14 7 17 -3 3
-9 2 -12 -2z"/>
<path d="M901 1292 c-13 -25 -14 -42 -2 -42 10 0 25 50 17 57 -2 3 -9 -4 -15
-15z"/>
<path d="M700 1289 c0 -5 5 -7 10 -4 6 3 10 8 10 11 0 2 -4 4 -10 4 -5 0 -10
-5 -10 -11z"/>
<path d="M820 1280 c0 -5 5 -10 10 -10 6 0 10 5 10 10 0 6 -4 10 -10 10 -5 0
-10 -4 -10 -10z"/>
<path d="M755 1271 c-3 -5 -1 -12 5 -16 5 -3 10 1 10 9 0 18 -6 21 -15 7z"/>
<path d="M790 1269 c0 -5 5 -7 10 -4 6 3 10 8 10 11 0 2 -4 4 -10 4 -5 0 -10
-5 -10 -11z"/>
<path d="M920 1261 c0 -14 -6 -21 -20 -21 -11 0 -20 -7 -20 -15 0 -8 5 -15 10
-15 6 0 10 5 10 11 0 8 5 8 15 -1 12 -10 16 -10 19 1 11 31 10 52 -1 56 -8 3
-13 -4 -13 -16z"/>
<path d="M720 1254 c0 -8 5 -12 10 -9 6 3 10 10 10 16 0 5 -4 9 -10 9 -5 0
-10 -7 -10 -16z"/>
<path d="M815 1243 c-4 -13 -12 -23 -17 -23 -6 0 -7 7 -4 16 4 10 1 14 -6 12
-7 -3 -13 -10 -13 -15 0 -6 -3 -15 -7 -19 -11 -11 -10 -24 2 -24 6 0 10 7 10
16 0 13 3 14 14 5 12 -10 17 -8 26 9 6 12 9 26 6 33 -2 7 -8 2 -11 -10z"/>
<path d="M141 1246 c2 -2 18 -6 34 -10 22 -5 26 -4 15 4 -14 9 -59 15 -49 6z"/>
<path d="M268 1233 c7 -3 16 -2 19 1 4 3 -2 6 -13 5 -11 0 -14 -3 -6 -6z"/>
<path d="M740 1230 c0 -5 5 -10 10 -10 6 0 10 5 10 10 0 6 -4 10 -10 10 -5 0
-10 -4 -10 -10z"/>
<path d="M670 1219 c0 -5 5 -7 10 -4 6 3 10 8 10 11 0 2 -4 4 -10 4 -5 0 -10
-5 -10 -11z"/>
<path d="M710 1203 c0 -14 3 -23 7 -19 10 10 11 46 1 46 -4 0 -8 -12 -8 -27z"/>
<path d="M645 1210 c-3 -5 -1 -10 4 -10 6 0 11 5 11 10 0 6 -2 10 -4 10 -3 0
-8 -4 -11 -10z"/>
<path d="M610 1190 c0 -5 5 -10 10 -10 6 0 10 5 10 10 0 6 -4 10 -10 10 -5 0
-10 -4 -10 -10z"/>
<path d="M740 1189 c0 -6 -8 -18 -17 -25 -10 -7 -13 -14 -7 -14 18 0 47 37 35
45 -6 3 -11 1 -11 -6z"/>
<path d="M860 1190 c0 -5 4 -10 9 -10 6 0 13 5 16 10 3 6 -1 10 -9 10 -9 0
-16 -4 -16 -10z"/>
<path d="M185 1180 c3 -5 8 -10 11 -10 2 0 4 5 4 10 0 6 -5 10 -11 10 -5 0 -7
-4 -4 -10z"/>
<path d="M655 1180 c-3 -5 -1 -10 4 -10 6 0 11 5 11 10 0 6 -2 10 -4 10 -3 0
-8 -4 -11 -10z"/>
<path d="M680 1170 c0 -5 5 -10 10 -10 6 0 10 5 10 10 0 6 -4 10 -10 10 -5 0
-10 -4 -10 -10z"/>
<path d="M757 1162 c-19 -21 -24 -43 -5 -24 17 17 29 15 22 -3 -4 -8 -10 -15
-16 -15 -10 0 -38 -25 -38 -34 0 -12 16 -5 43 20 24 20 27 29 20 50 -8 25 -9
25 -26 6z"/>
<path d="M620 1159 c0 -5 5 -7 10 -4 6 3 10 8 10 11 0 2 -4 4 -10 4 -5 0 -10
-5 -10 -11z"/>
<path d="M655 1151 c-3 -5 -1 -12 5 -16 5 -3 10 1 10 9 0 18 -6 21 -15 7z"/>
<path d="M234 1139 c-3 -6 0 -15 7 -20 24 -15 34 -10 13 7 -17 14 -17 15 -1
10 11 -3 16 -2 12 4 -8 13 -22 13 -31 -1z"/>
<path d="M570 1130 c0 -5 5 -10 11 -10 5 0 7 5 4 10 -3 6 -8 10 -11 10 -2 0
-4 -4 -4 -10z"/>
<path d="M616 1124 c-11 -7 -18 -16 -15 -18 2 -2 13 2 23 10 11 7 18 16 15 18
-2 2 -13 -2 -23 -10z"/>
<path d="M716 1125 c-3 -8 -1 -15 4 -15 13 0 22 18 11 24 -5 3 -11 -1 -15 -9z"/>
<path d="M285 1120 c-3 -6 1 -7 9 -4 18 7 21 14 7 14 -6 0 -13 -4 -16 -10z"/>
<path d="M438 1113 c6 -2 18 -2 25 0 6 3 1 5 -13 5 -14 0 -19 -2 -12 -5z"/>
<path d="M550 1102 c0 -4 10 -9 22 -9 18 -2 20 0 8 7 -18 12 -30 13 -30 2z"/>
<path d="M630 1101 c0 -5 -9 -13 -20 -16 -11 -3 -20 -10 -20 -15 0 -5 13 -1
30 8 30 17 39 32 20 32 -5 0 -10 -4 -10 -9z"/>
<path d="M468 1092 c-10 -2 -18 -8 -18 -13 0 -11 11 -11 30 1 18 11 11 18 -12
12z"/>
<path d="M512 1085 c-7 -8 -9 -15 -4 -15 5 0 15 7 22 15 16 19 -1 19 -18 0z"/>
<path d="M638 1072 c-16 -10 -28 -20 -28 -24 0 -15 19 -8 47 17 32 28 22 31
-19 7z"/>
<path d="M380 1070 c-8 -5 -10 -10 -5 -10 6 0 17 5 25 10 8 5 11 10 5 10 -5 0
-17 -5 -25 -10z"/>
<path d="M470 1060 c0 -5 5 -10 10 -10 6 0 10 5 10 10 0 6 -4 10 -10 10 -5 0
-10 -4 -10 -10z"/>
<path d="M439 1045 c42 -19 46 -19 27 0 -8 8 -25 15 -38 15 -20 -1 -18 -3 11
-15z"/>
<path d="M545 1050 c-19 -8 -19 -9 3 -9 12 -1 22 4 22 9 0 6 -1 10 -2 9 -2 0
-12 -4 -23 -9z"/>
<path d="M585 1040 c3 -5 8 -10 11 -10 2 0 4 5 4 10 0 6 -5 10 -11 10 -5 0 -7
-4 -4 -10z"/>
<path d="M415 1029 c-19 -7 -19 -8 3 -8 12 -1 22 -5 22 -10 0 -5 21 -12 48
-15 26 -4 55 -9 65 -12 9 -3 17 -1 17 5 0 6 -19 11 -41 11 -36 0 -40 2 -29 15
9 10 9 15 1 15 -6 0 -11 -4 -11 -10 0 -14 -26 -12 -42 3 -8 9 -21 11 -33 6z"/>
<path d="M340 1025 c0 -8 29 -12 39 -5 9 5 4 8 -13 8 -14 0 -26 -2 -26 -3z"/>
<path d="M610 1020 c0 -5 5 -10 10 -10 6 0 10 5 10 10 0 6 -4 10 -10 10 -5 0
-10 -4 -10 -10z"/>
<path d="M370 1000 c-8 -5 -10 -10 -5 -10 6 0 17 5 25 10 8 5 11 10 5 10 -5 0
-17 -5 -25 -10z"/>
<path d="M363 981 c-59 -10 -61 -17 -6 -16 27 1 48 6 51 13 2 7 2 11 0 11 -1
-1 -22 -5 -45 -8z"/>
</g>
</svg>
